<svg xmlns="http://www.w3.org/2000/svg" xmlns:xlink="http://www.w3.org/1999/xlink" width="20" height="20"
    preserveAspectRatio="xMidYMid meet" viewBox="0 0 20 20"
    style="-ms-transform: rotate(360deg); -webkit-transform: rotate(360deg); transform: rotate(360deg);">
    <g fill="none">
        <path
            d="M2 4.5A2.5 2.5 0 0 1 4.5 2h11A2.5 2.5 0 0 1 18 4.5v11a2.5 2.5 0 0 1-2.5 2.5h-11A2.5 2.5 0 0 1 2 15.5v-11zM4.5 3A1.5 1.5 0 0 0 3 4.5v11A1.5 1.5 0 0 0 4.5 17h11a1.5 1.5 0 0 0 1.5-1.5v-11A1.5 1.5 0 0 0 15.5 3h-11z"
            fill="#efefef" />
        <path d="M5 6a1 1 0 0 1 1-1h2a1 1 0 0 1 1 1v2a1 1 0 0 1-1 1H6a1 1 0 0 1-1-1V6zm3 0H6v2h2V6z" fill="#626262" />
        <path d="M5 12a1 1 0 0 1 1-1h2a1 1 0 0 1 1 1v2a1 1 0 0 1-1 1H6a1 1 0 0 1-1-1v-2zm3 0H6v2h2v-2z"
            fill="#efefef" />
        <path d="M11 6a1 1 0 0 1 1-1h2a1 1 0 0 1 1 1v2a1 1 0 0 1-1 1h-2a1 1 0 0 1-1-1V6zm3 0h-2v2h2V6z"
            fill="#efefef" />
        <path d="M11 12a1 1 0 0 1 1-1h2a1 1 0 0 1 1 1v2a1 1 0 0 1-1 1h-2a1 1 0 0 1-1-1v-2zm3 0h-2v2h2v-2z"
            fill="#efefef" />
    </g>
    <rect x="0" y="0" width="20" height="20" fill="rgba(0, 0, 0, 0)" />
</svg>