<svg xmlns="http://www.w3.org/2000/svg" xmlns:xlink="http://www.w3.org/1999/xlink" width="24" height="24"
    preserveAspectRatio="xMidYMid meet" viewBox="0 0 24 24"
    style="-ms-transform: rotate(360deg); -webkit-transform: rotate(360deg); transform: rotate(360deg);">
    <g fill="none">
        <path
            d="M12.755 4.001v.002h7.498c.966 0 1.75.784 1.75 1.75v12.495a1.75 1.75 0 0 1-1.75 1.75h-8.998v-.002H3.756a1.75 1.75 0 0 1-1.75-1.75V5.751c0-.967.784-1.75 1.75-1.75h8.998zm7.498 1.502h-7.498v12.995h7.498a.25.25 0 0 0 .25-.25V5.754a.25.25 0 0 0-.25-.25zm-8.998-.002H3.757a.25.25 0 0 0-.25.25v12.495c0 .138.112.25.25.25h7.498V5.501z"
            fill="#efefef" />
    </g>
    <rect x="0" y="0" width="24" height="24" fill="rgba(0, 0, 0, 0)" />
</svg>