<svg xmlns="http://www.w3.org/2000/svg" xmlns:xlink="http://www.w3.org/1999/xlink" width="24" height="24"
    preserveAspectRatio="xMidYMid meet" viewBox="0 0 24 24"
    style="-ms-transform: rotate(360deg); -webkit-transform: rotate(360deg); transform: rotate(360deg);">
    <path
        d="M15 20c0-.55-.45-1-1-1h-1v-2h6c1.11 0 2-.89 2-2V7a2 2 0 0 0-2-2h-6l-2-2H5c-1.1 0-2 .9-2 2v10a2 2 0 0 0 2 2h6v2h-1c-.55 0-1 .45-1 1H2v2h7c0 .55.45 1 1 1h4c.55 0 1-.45 1-1h7v-2h-7M5 15V7h14v8H5z"
        fill="#efefef" />
    <rect x="0" y="0" width="24" height="24" fill="rgba(0, 0, 0, 0)" />
</svg>