<svg xmlns="http://www.w3.org/2000/svg" xmlns:xlink="http://www.w3.org/1999/xlink" aria-hidden="true" role="img"
    width="1em" height="1em" preserveAspectRatio="xMidYMid meet" viewBox="0 0 32 32">
    <path fill="#e44f26" d="M5.902 27.201L3.655 2h24.69l-2.25 25.197L15.985 30L5.902 27.201z" />
    <path fill="#f1662a" d="M16 27.858l8.17-2.265l1.922-21.532H16v23.797z" />
    <path fill="#ebebeb" d="M16 13.407h-4.09l-.282-3.165H16V7.151H8.25l.074.83l.759 8.517H16v-3.091z" />
    <path fill="#ebebeb"
        d="M16 21.434l-.014.004l-3.442-.929l-.22-2.465H9.221l.433 4.852l6.332 1.758l.014-.004v-3.216z" />
    <path fill="#fff"
        d="M15.989 13.407v3.091h3.806l-.358 4.009l-3.448.93v3.216l6.337-1.757l.046-.522l.726-8.137l.076-.83H15.989z" />
    <path fill="#fff" d="M15.989 7.151V10.242h7.466l.062-.694l.141-1.567l.074-.83h-7.743z" />
</svg>