<svg xmlns="http://www.w3.org/2000/svg" xmlns:xlink="http://www.w3.org/1999/xlink" width="24" height="24"
    preserveAspectRatio="xMidYMid meet" viewBox="0 0 24 24"
    style="-ms-transform: rotate(360deg); -webkit-transform: rotate(360deg); transform: rotate(360deg);">
    <path
        d="M12 4.53l-1.17.91L9.41 4L12 2l9 7l-3.72 2.89l-1.43-1.42L17.74 9L12 4.53m9 9.54l-.87.68l-1.43-1.43l.67-.52L21 14.07M3.41.86l18.73 18.73L20.73 21l-3.78-3.78L12 21.07l-9-7l1.62-1.26L12 18.54l3.5-2.75l-1.4-1.42L12 16L3 9l3.22-2.5L2 2.27L3.41.86M12 13.47l.67-.53l-5.02-5.02L6.26 9L12 13.47z"
        fill="#efefef" />
    <rect x="0" y="0" width="24" height="24" fill="rgba(0, 0, 0, 0)" />
</svg>