<svg xmlns="http://www.w3.org/2000/svg" xmlns:xlink="http://www.w3.org/1999/xlink" width="24" height="24"
    preserveAspectRatio="xMidYMid meet" viewBox="0 0 24 24"
    style="-ms-transform: rotate(360deg); -webkit-transform: rotate(360deg); transform: rotate(360deg);">
    <path
        d="M12.18 20c.18.72.47 1.39.86 2H6c-1.11 0-2-.89-2-2V4a2 2 0 0 1 2-2h12a2 2 0 0 1 2 2v8.18c-.5-.11-1-.18-1.5-.18c-.17 0-.33 0-.5.03V4h-5v8l-2.5-2.25L8 12V4H6v16h6.18M23 18.5c0 2.5-2 4.5-4.5 4.5S14 21 14 18.5s2-4.5 4.5-4.5s4.5 2 4.5 4.5m-3 2.58L15.92 17c-.27.42-.42.94-.42 1.5c0 1.66 1.34 3 3 3c.56 0 1.08-.15 1.5-.42m1.5-2.58c0-1.66-1.34-3-3-3c-.56 0-1.08.15-1.5.42L21.08 20c.27-.42.42-.94.42-1.5z"
        fill="#efefef" />
    <rect x="0" y="0" width="24" height="24" fill="rgba(0, 0, 0, 0)" />
</svg>