<svg xmlns="http://www.w3.org/2000/svg" xmlns:xlink="http://www.w3.org/1999/xlink" width="24" height="24"
    preserveAspectRatio="xMidYMid meet" viewBox="0 0 24 24"
    style="-ms-transform: rotate(360deg); -webkit-transform: rotate(360deg); transform: rotate(360deg);">
    <path
        d="M20.45 17.39l-8.09 4.58V18.4l5.04-2.77l3.05 1.76m.55-.5V7.31L18.04 9v6.18L21 16.89m-17.45.5l8.09 4.57V18.4L6.6 15.63l-3.05 1.76m-.55-.5V7.31L5.96 9v6.18L3 16.89m.35-10.2L11.64 2v3.45L6.33 8.37l-.05.02l-2.93-1.7m17.3 0L12.36 2v3.45l5.31 2.93l.04.02l2.94-1.71m-9.01 10.9l-4.97-2.74V9.44l4.97 2.87v5.28m.72 0l4.97-2.73V9.44l-4.97 2.87v5.28M7 8.81l5-2.75l5 2.75l-5 2.88l-5-2.88z"
        fill="#efefef" />
    <rect x="0" y="0" width="24" height="24" fill="rgba(0, 0, 0, 0)" />
</svg>