<svg xmlns="http://www.w3.org/2000/svg" xmlns:xlink="http://www.w3.org/1999/xlink" width="24" height="24" preserveAspectRatio="xMidYMid meet" viewBox="0 0 24 24" style="-ms-transform: rotate(360deg); -webkit-transform: rotate(360deg); transform: rotate(360deg);"><g fill="none"><path d="M20.253 4.003c.966 0 1.75.784 1.75 1.75v12.495a1.75 1.75 0 0 1-1.75 1.75h-7.248c-.087 0-.172-.006-.256-.018V4.022c.084-.012.17-.019.256-.019h7.248zm-9.248-.002c.083 0 .165.006.245.017V19.98c-.08.011-.162.017-.245.017H3.757a1.75 1.75 0 0 1-1.75-1.75V5.751c0-.967.784-1.75 1.75-1.75h7.248z" fill="#626262"/></g><rect x="0" y="0" width="24" height="24" fill="rgba(0, 0, 0, 0)" /></svg>