<svg xmlns="http://www.w3.org/2000/svg" xmlns:xlink="http://www.w3.org/1999/xlink" width="24" height="24" preserveAspectRatio="xMidYMid meet" viewBox="0 0 24 24" style="-ms-transform: rotate(360deg); -webkit-transform: rotate(360deg); transform: rotate(360deg);"><g fill="none"><path d="M4.75 20.5h14.5a.75.75 0 0 1 .102 1.493L19.25 22H4.75a.75.75 0 0 1-.102-1.493l.102-.007h14.5h-14.5zM16.25 3A3.75 3.75 0 0 1 20 6.75v8.5A3.75 3.75 0 0 1 16.25 19h-8.5A3.75 3.75 0 0 1 4 15.25v-8.5A3.75 3.75 0 0 1 7.75 3h8.5z" fill="#626262"/></g><rect x="0" y="0" width="24" height="24" fill="rgba(0, 0, 0, 0)" /></svg>