<svg xmlns="http://www.w3.org/2000/svg" xmlns:xlink="http://www.w3.org/1999/xlink" width="24" height="24" preserveAspectRatio="xMidYMid meet" viewBox="0 0 24 24" style="-ms-transform: rotate(360deg); -webkit-transform: rotate(360deg); transform: rotate(360deg);"><g fill="none"><path d="M21.707 3.707a1 1 0 0 0-1.414-1.414L18.496 4.09a4.252 4.252 0 0 0-5.251.604l-1.068 1.069a1.75 1.75 0 0 0 0 2.474l3.585 3.586a1.75 1.75 0 0 0 2.475 0l1.068-1.068a4.252 4.252 0 0 0 .605-5.25l1.797-1.798z" fill="#626262"/><path d="M10.707 11.707a1 1 0 0 0-1.414-1.414l-1.47 1.47l-.293-.293a.75.75 0 0 0-1.06 0l-1.775 1.775a4.252 4.252 0 0 0-.605 5.25l-1.797 1.798a1 1 0 1 0 1.414 1.414l1.798-1.797a4.252 4.252 0 0 0 5.25-.605l1.775-1.775a.75.75 0 0 0 0-1.06l-.293-.293l1.47-1.47a1 1 0 0 0-1.414-1.414l-1.47 1.47l-1.586-1.586l1.47-1.47z" fill="#626262"/></g><rect x="0" y="0" width="24" height="24" fill="rgba(0, 0, 0, 0)" /></svg>